HIERARCHY
ROOT hip
{
	OFFSET 0.000000 0.000000 0.000000 
	CHANNELS 6 Xposition Yposition Zposition Xrotation Zrotation Yrotation
	JOINT abdomen
	{
		OFFSET 0.000000 3.402643 0.000000 
		CHANNELS 3 Xrotation Zrotation Yrotation
		JOINT chest
		{
			OFFSET 0.000000 8.438565 -0.680529 
			CHANNELS 3 Xrotation Zrotation Yrotation
			JOINT neck
			{
				OFFSET 0.000000 10.207942 -0.272212 
				CHANNELS 3 Xrotation Zrotation Yrotation
				JOINT head
				{
					OFFSET 0.000000 3.130431 0.000000 
					CHANNELS 3 Xrotation Zrotation Yrotation
					End Site
					{
						OFFSET 0.000000 3.130435 0.000000 
					}
				}
			}
			JOINT lCollar
			{
				OFFSET 3.470700 6.669187 -0.816635 
				CHANNELS 3 Yrotation Zrotation Xrotation
				JOINT lShldr
				{
					OFFSET 3.198488 0.000000 0.000000 
					CHANNELS 3 Zrotation Yrotation Xrotation
					JOINT lForeArm
					{
						OFFSET 10.139888 0.000000 0.000000 
						CHANNELS 3 Yrotation Zrotation Xrotation
						JOINT lHand
						{
							OFFSET 8.370511 0.000000 0.000000 
							CHANNELS 3 Zrotation Yrotation Xrotation
							End Site
							{
								OFFSET 4.083176 0.000000 0.000000 
							}
						}
					}
				}
			}
			JOINT rCollar
			{
				OFFSET -3.470700 6.669187 -0.816635 
				CHANNELS 3 Yrotation Zrotation Xrotation
				JOINT rShldr
				{
					OFFSET -3.198488 0.000000 0.000000 
					CHANNELS 3 Zrotation Yrotation Xrotation
					JOINT rForeArm
					{
						OFFSET -10.139888 0.000000 0.000000 
						CHANNELS 3 Yrotation Zrotation Xrotation
						JOINT rHand
						{
							OFFSET -8.370511 0.000000 0.000000 
							CHANNELS 3 Zrotation Yrotation Xrotation
							End Site
							{
								OFFSET -4.083176 0.000000 0.000000 
							}
						}
					}
				}
			}
		}
	}
	JOINT lThigh
	{
		OFFSET 5.308129 -1.633274 1.361059 
		CHANNELS 3 Xrotation Zrotation Yrotation
		JOINT lShin
		{
			OFFSET -2.041588 -20.007561 0.000000 
			CHANNELS 3 Xrotation Zrotation Yrotation
			JOINT lFoot
			{
				OFFSET 0.000000 -19.190928 -1.224953 
				CHANNELS 3 Xrotation Yrotation Zrotation
				End Site
				{
					OFFSET 0.000000 -2.449906 4.627600 
				}
			}
		}
	}
	JOINT rThigh
	{
		OFFSET -5.308129 -1.633274 1.361059 
		CHANNELS 3 Xrotation Zrotation Yrotation
		JOINT rShin
		{
			OFFSET 2.041588 -20.007561 0.000000 
			CHANNELS 3 Xrotation Zrotation Yrotation
			JOINT rFoot
			{
				OFFSET 0.000000 -19.190928 -1.224953 
				CHANNELS 3 Xrotation Yrotation Zrotation
				End Site
				{
					OFFSET 0.000000 -2.449906 4.627600 
				}
			}
		}
	}
}
MOTION
Frames: 16
Frame Time: 0.016667
6.222111 39.862534 -13.555809 -8.320710 2.821590 -104.495003 -10.355700 -0.487945 -2.177710 21.816401 -0.126922 -1.428590 -7.445890 -20.328699 31.337601 7.870950 -3.164950 14.231100 2.000000 -2.000000 0.000000 -76.809700 -16.178200 169.119995 77.451698 -0.244553 0.133499 -179.921997 -179.901993 5.588090 -2.000000 2.000000 0.000000 45.073200 -10.596500 112.665001 -71.172401 0.258971 0.129408 179.901993 179.880997 0.031497 -23.169788 10.337780 26.660276 55.052864 1.616136 3.689856 -26.969067 30.755651 16.211817 -34.969723 -7.699007 5.441202 62.265064 -0.932792 -4.078899 -25.976246 1.417171 1.187438 
6.226066 39.829796 -13.370114 -7.365030 3.196120 -102.473000 -10.252800 -0.133466 -2.573290 21.826200 -0.214791 -1.567300 -7.713110 -21.357000 31.320601 8.057620 -3.564020 14.065100 2.000000 -2.000000 0.000000 -77.112198 -16.052200 168.718994 77.871597 -0.243574 0.133713 -179.921997 -179.903000 5.666220 -2.000000 2.000000 0.000000 45.130299 -8.681960 112.139999 -69.346199 0.263072 0.127936 179.901993 179.880005 -0.329850 -24.183807 11.016301 25.388210 55.730980 1.555837 3.724978 -25.463970 30.872629 15.376544 -34.445435 -7.706428 3.829585 62.128117 -0.925770 -4.071064 -26.199982 0.894911 0.829708 
6.249331 39.822441 -13.173411 -6.633810 3.540650 -100.528999 -10.284000 -0.089003 -2.454790 21.777399 -0.605331 -1.468080 -7.439710 -21.297899 30.813801 8.165390 -3.622210 13.839300 2.000000 -2.000000 0.000000 -76.458000 -15.934100 169.100006 78.076698 -0.243096 0.133815 -179.921005 -179.901001 5.031440 -2.000000 2.000000 0.000000 45.861198 -6.826010 111.595001 -67.295403 0.267619 0.126128 179.901993 179.880005 -0.359147 -25.058294 11.523605 24.746384 56.212940 1.496645 3.747606 -24.972630 29.910315 14.659439 -34.069084 -7.830537 2.592916 62.030445 -0.939709 -4.083115 -26.218987 0.165050 0.385765 
6.296232 39.892181 -12.896496 -6.711390 3.443100 -99.027802 -10.232500 0.195426 -2.681150 21.679701 0.126929 -1.579520 -7.312700 -21.488501 30.782301 8.165220 -3.554030 13.815000 2.000000 -2.000000 0.000000 -76.701302 -15.653800 167.848999 78.125504 -0.242982 0.133839 -179.921997 -179.901993 5.441610 -2.000000 2.000000 0.000000 45.403198 -3.838200 112.125000 -65.400902 0.271760 0.124314 179.901993 179.880005 -0.427506 -25.351582 11.141957 24.913588 56.271923 1.495378 3.754533 -25.120483 28.609198 14.165629 -33.901455 -8.810871 1.978609 62.215435 -0.939640 -4.065963 -26.100775 -0.453747 -0.029134 
6.368083 39.897335 -12.537239 -6.633060 3.433950 -97.039597 -10.236800 0.272123 -2.421680 21.630899 0.029292 -1.434990 -6.902520 -21.434999 30.218500 8.262970 -3.514830 13.587200 2.000000 -2.000000 0.000000 -76.203499 -15.838900 168.054993 78.047401 -0.243164 0.133801 -179.921997 -179.901993 5.646690 -2.000000 2.000000 0.000000 46.330299 -0.898535 111.893997 -63.418499 0.276026 0.122271 179.903000 179.880997 0.236574 -25.791307 10.699092 24.585682 56.265270 1.445117 3.787377 -23.250671 28.358562 13.133658 -33.420082 -9.845342 1.078827 62.048676 -0.958670 -4.063985 -26.024984 -1.065448 -0.437938 
6.412536 39.939758 -12.162592 -6.747980 3.064600 -94.551399 -10.006800 0.411424 -2.129640 21.787100 0.039053 -1.278450 -6.006490 -21.129400 29.307100 8.448220 -3.261200 13.243900 2.000000 -2.000000 0.000000 -75.979897 -16.892200 168.662994 77.744698 -0.243870 0.133649 -179.921997 -179.903000 5.715050 -2.000000 2.000000 0.000000 46.583698 2.382940 111.642998 -60.723202 0.281708 0.119258 179.904999 179.882996 1.301020 -25.768158 9.807956 24.262148 55.933678 1.428800 3.790043 -21.343502 27.574520 11.912358 -32.391068 -11.317026 0.029850 61.939995 -0.984299 -4.054179 -26.302227 -1.356799 -0.752043 
6.456302 40.001621 -11.805804 -5.944760 2.826540 -92.139503 -9.903410 0.914563 -1.962050 21.894501 0.185496 -1.138210 -5.477640 -21.341700 29.023300 8.643880 -3.270460 13.134400 2.000000 -2.000000 0.000000 -75.228302 -17.263000 168.781006 77.959503 -0.243369 0.133757 -179.921997 -179.901993 5.597860 -2.000000 2.000000 0.000000 47.317200 6.122830 112.028000 -58.535702 0.286211 0.116619 179.904999 179.882996 1.261960 -25.938828 10.042205 23.795067 55.963177 1.415869 3.782283 -22.330187 24.892246 11.268868 -31.001873 -11.763195 -1.652188 61.398949 -1.048460 -4.015960 -26.177748 -2.030874 -1.179307 
6.547117 40.119061 -11.389256 -5.230750 2.771630 -89.384201 -9.867690 1.443790 -1.916600 21.972700 0.322167 -1.046670 -6.171270 -21.358101 28.824499 8.340810 -3.339350 12.960900 2.000000 -2.000000 0.000000 -74.711197 -17.848600 168.899002 78.233002 -0.242731 0.133892 -179.923004 -179.903000 5.832230 -2.000000 2.000000 0.000000 47.710201 10.243200 112.872002 -56.211399 0.290882 0.113629 179.904007 179.882004 0.832275 -26.613413 9.928221 22.836639 55.945122 1.395270 3.801612 -21.443888 23.711321 10.379245 -29.814873 -12.185217 -3.120908 60.632477 -1.128659 -3.974910 -26.108204 -3.243222 -1.898581 
6.617215 40.205940 -10.928635 -5.737850 2.487490 -85.991798 -9.833350 1.728220 -1.594390 22.031300 0.634555 -0.862464 -6.047850 -21.411200 27.905701 8.292030 -3.397890 12.510200 2.000000 -2.000000 0.000000 -74.097397 -18.900499 170.113007 78.506401 -0.242092 0.134023 -179.923996 -179.904007 6.418170 -2.000000 2.000000 0.000000 48.999599 14.022600 112.680000 -54.229000 0.294767 0.110931 179.904999 179.882996 1.252190 -26.761120 8.153873 22.128067 55.378811 1.386169 3.806024 -21.071907 21.934177 9.523841 -28.156219 -14.356639 -4.966664 60.159431 -1.205849 -3.939177 -26.054621 -3.862705 -2.333894 
6.711321 40.374805 -10.397577 -6.323740 2.358620 -82.282600 -9.896400 2.335910 -1.615220 22.041500 1.425300 -0.812436 -5.688520 -20.695499 27.026501 8.046570 -2.911370 12.188500 2.000000 -2.000000 0.000000 -74.303703 -20.002701 170.682007 78.574699 -0.241932 0.134056 -179.923996 -179.904007 6.525590 -2.000000 2.000000 0.000000 49.481499 18.084200 113.669998 -51.934101 0.299144 0.107641 179.904999 179.884003 1.398680 -26.806686 5.964269 21.134445 54.272758 1.391239 3.767804 -19.125525 21.373194 8.619916 -26.376678 -16.420702 -6.524546 59.566845 -1.315670 -3.876243 -26.388153 -4.658910 -2.898693 
6.849385 40.566242 -9.961907 -5.219940 2.528550 -78.570503 -10.179600 3.001920 -0.967947 21.982599 0.946972 -0.366895 -4.008010 -19.877199 25.247601 8.378290 -2.404480 11.516900 2.000000 -2.000000 0.000000 106.709999 -158.272995 -7.732610 78.369698 -0.242411 0.133958 -179.916000 -179.897003 7.472870 -2.000000 2.000000 0.000000 50.615200 21.814899 113.440002 -49.053200 0.304447 0.103269 179.906006 179.884003 1.711180 -27.680216 5.667259 19.477009 53.734337 1.394977 3.748656 -17.683493 19.615652 7.465201 -25.014044 -16.061716 -7.935443 58.625271 -1.380951 -3.848012 -25.962700 -6.856821 -4.001389 
6.960892 40.742580 -9.508419 -5.698580 2.448790 -74.794800 -10.280900 3.306200 -0.432914 21.992500 1.103170 -0.060059 -3.012260 -19.163799 23.556900 8.504990 -2.034370 10.798500 2.000000 -2.000000 0.000000 108.084999 -156.673996 -6.582640 78.340401 -0.242480 0.133944 -179.916000 -179.897003 7.599830 -2.000000 2.000000 0.000000 51.719398 26.493200 112.862000 -45.654701 0.310411 0.097775 179.906006 179.884995 2.199460 -27.583961 3.616144 18.256121 52.530167 1.425213 3.725236 -16.295639 18.382467 6.595413 -23.324093 -17.251558 -8.647822 58.170830 -1.470123 -3.804429 -25.803181 -9.330705 -5.253268 
7.131355 40.927433 -9.036309 -5.168680 1.838200 -70.634903 -10.287800 4.054130 0.056048 22.051001 0.966468 0.298810 -2.245260 -18.898899 21.985201 8.612390 -1.907750 10.091900 2.000000 -2.000000 0.000000 108.931000 -154.313004 -5.532220 78.086502 -0.243073 0.133820 -179.914993 -179.897003 7.414280 -2.000000 2.000000 0.000000 52.631100 30.877600 113.237999 -42.910599 0.314982 0.093088 179.906006 179.884003 1.838130 -27.457655 2.574704 16.098261 51.637856 1.456914 3.681179 -15.226426 16.978161 5.810718 -20.716333 -16.987780 -9.796981 56.990093 -1.603467 -3.729023 -26.157373 -11.701416 -6.525861 
7.240918 41.034943 -8.575003 -6.390470 1.960410 -66.430298 -10.376700 4.449550 0.642257 22.080601 1.522900 0.626694 -1.567890 -18.583799 20.070200 8.641620 -1.742260 9.205920 2.000000 -2.000000 0.000000 109.914001 -151.962006 -4.442870 77.861900 -0.243597 0.133708 -179.925003 -179.895996 7.189670 -2.000000 2.000000 0.000000 53.737598 35.897400 112.970001 -39.795300 0.319893 0.087508 179.908005 179.886993 2.834220 -26.715107 -0.474163 14.785162 50.069214 1.508391 3.607769 -14.176511 15.866158 5.121868 -18.643566 -18.829807 -10.673193 56.769173 -1.710279 -3.685307 -26.488770 -14.167703 -7.782522 
7.366387 41.178555 -8.163351 -5.842600 1.758400 -62.113400 -10.539500 5.225920 1.063490 22.383499 1.571470 0.968334 -0.559808 -17.173599 18.159300 8.631900 -1.090090 8.419080 2.000000 -2.000000 0.000000 111.324997 -149.042999 -3.894240 77.002502 -0.245598 0.133262 -179.916000 -179.897003 7.453340 -2.000000 2.000000 0.000000 55.574001 40.797798 114.914001 -37.637100 0.323114 0.083490 179.908005 179.886993 2.804920 -26.832220 -1.604026 12.525388 49.294170 1.542770 3.568983 -13.555260 14.526621 4.496968 -16.564547 -18.258640 -11.843223 55.942795 -1.798701 -3.638725 -27.469885 -16.559975 -9.362622 
7.461135 41.327953 -7.784758 -6.320410 1.455940 -57.504902 -10.666200 5.745750 1.650560 22.481199 1.629940 1.344080 0.749537 -15.923100 15.750200 8.798410 -0.554936 7.386510 2.000000 -2.000000 0.000000 113.204002 -145.735001 -2.783130 76.250504 -0.247344 0.132848 -179.914993 -179.895996 7.092010 -2.000000 2.000000 0.000000 57.930401 45.395100 117.139999 -35.830502 0.325692 0.080035 179.908997 179.897003 3.332240 -25.898788 -3.597750 10.405508 47.960548 1.597567 3.515968 -12.531996 12.967298 3.743896 -13.989224 -18.649014 -13.251691 55.535789 -1.897726 -3.584055 -28.260138 -18.653088 -10.742261 
